<?xml version="1.0" encoding="UTF-8"?> <svg xmlns="http://www.w3.org/2000/svg" width="312" height="59" viewBox="0 0 312 59" fill="none"><path d="M18.0225 38.7041H4.0332V18.8115H17.7148V21.0088H6.4502V27.3809H16.1768V29.5781H6.4502V36.5215H18.0225V38.7041ZM25.2383 33.123L21.1074 38.7041H18.3975L23.7881 31.4971L18.5439 24.6562H21.3125L25.2822 29.8857L29.2812 24.6562H31.9912L26.7471 31.4824L32.1377 38.7041H29.3984L25.2383 33.123ZM35.7939 36.3896V44.5635H33.4648V24.6416H35.7939V26.9414C36.9072 25.3594 38.7969 24.3486 41.2139 24.3486C45.1689 24.2754 48.3623 27.5566 48.3037 31.7021C48.3037 33.8115 47.6299 35.5547 46.2822 36.9316C44.9199 38.3086 43.2354 38.9971 41.2139 38.9971C38.7969 38.9971 36.9072 37.9717 35.7939 36.3896ZM40.9795 26.458C39.5 26.458 38.2549 26.9707 37.2588 27.9814C36.2627 28.9922 35.7646 30.2373 35.7646 31.7021C35.7646 33.167 36.2627 34.3975 37.2588 35.3936C38.2402 36.3896 39.4854 36.8877 40.9795 36.8877C42.4297 36.8877 43.6309 36.3896 44.583 35.3936C45.5205 34.4121 45.9893 33.1816 45.9893 31.7021C45.9893 30.2227 45.5205 28.9775 44.5684 27.9668C43.6162 26.9561 42.4297 26.458 40.9795 26.458ZM52.8096 38.7041H50.4805V18.0791H52.8096V38.7041ZM67.7744 36.8877C66.3535 38.2939 64.5664 38.9971 62.4424 38.9971C60.3184 38.9971 58.5312 38.2939 57.1104 36.8877C55.6895 35.4814 54.9717 33.7383 54.9717 31.6729C54.9717 29.6074 55.6895 27.8643 57.1104 26.458C58.5312 25.0518 60.3184 24.3486 62.4424 24.3486C64.5664 24.3486 66.3535 25.0518 67.7744 26.458C69.1953 27.8643 69.9131 29.6074 69.9131 31.6729C69.9131 33.7383 69.1953 35.4814 67.7744 36.8877ZM58.7656 27.9961C57.7842 28.9922 57.3008 30.2227 57.3008 31.6729C57.3008 33.123 57.7842 34.3535 58.7656 35.335C59.7471 36.3311 60.9629 36.8291 62.4424 36.8291C63.9219 36.8291 65.1377 36.3311 66.1191 35.335C67.1006 34.3535 67.584 33.123 67.584 31.6729C67.584 30.2227 67.1006 28.9922 66.1191 27.9961C65.1377 27.0146 63.9219 26.5166 62.4424 26.5166C60.9629 26.5166 59.7471 27.0146 58.7656 27.9961ZM74.4043 30.8965V38.7041H72.0605V24.6416H74.4043V26.7217C75.166 25.1396 76.543 24.3486 78.1982 24.3486C78.9746 24.3486 79.6484 24.4658 80.1904 24.7148L79.9561 26.8682C79.3262 26.6338 78.7109 26.5166 78.1104 26.5166C76.2207 26.5166 74.4043 27.7471 74.4043 30.8965ZM80.1113 31.6729C80.1113 27.542 83.3486 24.3486 87.3477 24.3486C89.1055 24.3486 90.8047 24.9932 92.0645 26.0918C93.3242 27.2051 94.1299 28.9482 94.1299 30.9551C94.1299 31.4824 94.1006 31.9072 94.0566 32.2441H82.4697C82.543 33.5625 83.041 34.6611 83.9639 35.54C84.8721 36.4336 86.0439 36.873 87.4648 36.873C89.3252 36.873 90.8047 36.082 91.9033 34.5146L93.6758 35.8037C93.0312 36.7998 92.167 37.5762 91.0684 38.1475C89.9697 38.7188 88.7686 38.9971 87.4648 38.9971C83.3047 39.0703 80.0234 35.7158 80.1113 31.6729ZM87.3623 26.4727C86.1318 26.4727 85.0625 26.8242 84.1689 27.542C83.2754 28.2598 82.7334 29.1826 82.5576 30.3252H91.8008C91.7275 29.1826 91.2734 28.2598 90.4385 27.542C89.6035 26.8242 88.5781 26.4727 87.3623 26.4727ZM101.398 32.8154C100.856 31.541 100.593 30.1934 100.593 28.7578C100.593 27.3223 100.856 25.96 101.398 24.6855C101.926 23.4111 102.644 22.3271 103.566 21.4336C105.383 19.6318 108.005 18.5186 110.817 18.5186C112.59 18.5186 114.23 18.9287 115.739 19.749C117.233 20.5693 118.479 21.7119 119.46 23.1914L117.57 24.5684C115.856 22.0488 113.615 20.7891 110.817 20.7891C108.649 20.7891 106.833 21.5508 105.354 23.0596C103.874 24.583 103.127 26.4873 103.127 28.7578C103.127 33.3574 106.569 36.7412 110.891 36.7412C113.718 36.7412 116.018 35.4961 117.761 33.0205L119.577 34.3242C118.64 35.7598 117.409 36.9023 115.886 37.7373C114.348 38.5723 112.692 38.9971 110.891 38.9971C108.063 38.9971 105.412 37.8838 103.581 36.0674C102.658 35.1738 101.94 34.0898 101.398 32.8154ZM125.943 38.9971C124.288 38.9971 122.94 38.6162 121.915 37.8545C120.89 37.0928 120.377 36.0381 120.377 34.6904C120.377 33.3867 120.948 32.3174 122.076 31.4971C123.204 30.6768 124.684 30.2666 126.515 30.2666C127.906 30.2666 129.239 30.5449 130.514 31.0869V30.0615C130.514 28.9775 130.147 28.1133 129.415 27.4688C128.683 26.8389 127.73 26.5166 126.573 26.5166C124.859 26.5166 123.409 27.2051 122.223 28.5967L120.714 27.1611C121.344 26.3115 122.193 25.623 123.263 25.1104C124.332 24.5977 125.431 24.3486 126.559 24.3486C128.463 24.3486 129.986 24.8467 131.129 25.8428C132.257 26.8535 132.828 28.1865 132.828 29.8711V38.7041H130.543V36.5654C129.664 38.0303 127.936 38.9971 125.943 38.9971ZM126.632 32.0977C125.475 32.0977 124.537 32.3174 123.819 32.7568C123.102 33.2109 122.735 33.8408 122.735 34.6465C122.735 35.4229 123.043 36.0088 123.673 36.4336C124.303 36.8584 125.108 37.0781 126.09 37.0781C127.35 37.0781 128.404 36.668 129.254 35.8477C130.089 35.0273 130.514 34.0898 130.514 33.0205C130.045 32.7422 129.459 32.5225 128.741 32.3467C128.023 32.1855 127.32 32.0977 126.632 32.0977ZM134.756 35.833L136.543 34.5293C137.363 35.9941 138.799 36.9023 140.747 36.9023C142.607 36.9023 143.882 36.1113 143.882 34.9248C143.882 34.2949 143.647 33.8408 143.164 33.5479C142.681 33.2549 141.816 32.9619 140.542 32.6836C139.238 32.3906 138.359 32.127 137.451 31.6582C136.997 31.4238 136.616 31.1602 136.338 30.8672C135.767 30.2959 135.4 29.4463 135.4 28.3916C135.4 27.1904 135.898 26.209 136.909 25.4619C137.905 24.7148 139.15 24.3486 140.63 24.3486C141.831 24.3486 142.9 24.5977 143.823 25.0957C144.746 25.5938 145.42 26.209 145.874 26.9561L144.277 28.2744C143.442 27.0586 142.227 26.4434 140.63 26.4434C138.857 26.4434 137.7 27.1904 137.7 28.3477C137.7 28.9775 137.949 29.4316 138.462 29.71C138.96 30.0029 139.883 30.3105 141.216 30.6328C142.856 31.0283 143.911 31.4238 144.849 32.0684C145.786 32.7275 146.226 33.6504 146.226 34.9248C146.226 36.1406 145.698 37.1221 144.629 37.8691C143.56 38.6162 142.271 38.9971 140.747 38.9971C137.891 38.9971 135.796 37.8105 134.756 35.833ZM147.465 31.6729C147.465 27.542 150.702 24.3486 154.701 24.3486C156.459 24.3486 158.158 24.9932 159.418 26.0918C160.678 27.2051 161.483 28.9482 161.483 30.9551C161.483 31.4824 161.454 31.9072 161.41 32.2441H149.823C149.896 33.5625 150.395 34.6611 151.317 35.54C152.226 36.4336 153.397 36.873 154.818 36.873C156.679 36.873 158.158 36.082 159.257 34.5146L161.029 35.8037C160.385 36.7998 159.521 37.5762 158.422 38.1475C157.323 38.7188 156.122 38.9971 154.818 38.9971C150.658 39.0703 147.377 35.7158 147.465 31.6729ZM154.716 26.4727C153.485 26.4727 152.416 26.8242 151.522 27.542C150.629 28.2598 150.087 29.1826 149.911 30.3252H159.154C159.081 29.1826 158.627 28.2598 157.792 27.542C156.957 26.8242 155.932 26.4727 154.716 26.4727ZM168.02 34.7051L169.836 33.4014C170.964 35.4375 172.912 36.7998 175.666 36.7998C177.014 36.7998 178.112 36.5068 178.977 35.9209C179.826 35.3496 180.251 34.6025 180.251 33.6797C180.251 32.7568 179.87 32.0244 179.123 31.4824C178.376 30.9404 177.087 30.3691 175.285 29.7686C174.45 29.4902 173.747 29.2266 173.176 28.9922C172.604 28.7578 172.019 28.4648 171.418 28.1133C170.817 27.7617 170.334 27.3955 169.982 27C169.265 26.2383 168.767 25.125 168.767 23.8213C168.767 22.1221 169.602 20.6719 170.847 19.8223C172.092 18.9727 173.674 18.5186 175.271 18.5186C177.087 18.5186 178.728 19.0166 179.855 19.8076C180.969 20.5986 181.687 21.3896 182.229 22.3125L180.339 23.6895C179.914 23.001 179.401 22.415 178.581 21.7705C177.746 21.1406 176.574 20.7305 175.271 20.7305C174.157 20.7305 173.22 20.9941 172.443 21.5361C171.667 22.0781 171.286 22.8252 171.286 23.792C171.286 24.5537 171.623 25.1836 172.077 25.6084C172.297 25.8281 172.634 26.0479 173.088 26.2676C173.542 26.502 173.967 26.6924 174.377 26.8389C174.772 27 175.329 27.1904 176.047 27.4395C176.911 27.7324 177.629 27.9961 178.2 28.2305C178.771 28.4648 179.387 28.7578 180.017 29.124C180.646 29.4902 181.145 29.8857 181.511 30.2812C182.243 31.0869 182.771 32.2441 182.771 33.6504C182.771 35.2031 182.097 36.4775 180.764 37.4883C179.431 38.499 177.731 38.9971 175.666 38.9971C173.835 38.9971 172.253 38.5869 170.92 37.7812C169.572 36.9756 168.605 35.9502 168.02 34.7051ZM185.797 34.6318V26.6484H183.204V24.6416H185.812V20.1299H188.111V24.6416H192.755V26.6484H188.126V34.251C188.126 36.0234 189.049 36.9023 190.558 36.9023C191.437 36.9023 192.242 36.7266 192.96 36.3604L193.268 38.3672C192.638 38.7188 191.422 38.9971 190.309 38.9971C187.54 38.9971 185.797 37.4443 185.797 34.6318ZM200.439 38.9971C198.608 38.9971 197.173 38.4844 196.133 37.459C195.093 36.4336 194.565 35.0127 194.565 33.2109V24.6416H196.88V32.6396C196.88 35.3496 198.286 36.7998 200.806 36.7998C202.051 36.7998 203.076 36.4189 203.911 35.6426C204.746 34.8662 205.156 33.8555 205.156 32.5957V24.6416H207.485V38.7041H205.156V36.5947C204.321 38.001 202.607 38.9971 200.439 38.9971ZM216.767 38.9971C212.812 39.0703 209.618 35.7891 209.677 31.6436C209.677 29.5488 210.351 27.8057 211.713 26.4141C213.061 25.0371 214.745 24.3486 216.767 24.3486C219.184 24.3486 221.073 25.374 222.187 26.9561V18.0791H224.516V38.7041H222.187V36.4189C221.073 38.001 219.184 38.9971 216.767 38.9971ZM217.001 26.458C215.551 26.458 214.35 26.9561 213.412 27.9375C212.46 28.9336 211.991 30.1641 211.991 31.6436C211.991 33.123 212.46 34.3535 213.412 35.3643C214.364 36.375 215.551 36.8877 217.001 36.8877C218.48 36.8877 219.726 36.375 220.722 35.3643C221.718 34.3535 222.216 33.1084 222.216 31.6436C222.216 30.1787 221.718 28.9482 220.736 27.9521C219.74 26.9561 218.495 26.458 217.001 26.458ZM231.658 39.7588L231.907 39.0996L225.828 24.6416H228.362L233.152 36.4189L237.854 24.6416H240.418L233.782 40.4912C233.152 42 232.449 43.0986 231.644 43.8018C230.838 44.5049 229.769 44.8564 228.421 44.8564C227.439 44.8564 226.648 44.6953 226.019 44.373L226.297 42.3955C226.854 42.6445 227.513 42.7764 228.289 42.7764C229.856 42.7764 230.882 41.8096 231.658 39.7588Z" fill="white"></path><circle cx="282.495" cy="29.7072" r="27.7374" stroke="white" stroke-width="2"></circle><path d="M293.608 27.5823L289.027 23.001L287.614 24.4135L291.872 28.6722L270.508 28.7022V30.7002L291.932 30.6702L287.613 34.9888L289.026 36.4014L293.608 31.82C294.169 31.2571 294.483 30.4953 294.483 29.7012C294.483 28.9071 294.169 28.1452 293.608 27.5823Z" fill="white"></path></svg> 