<?xml version="1.0" encoding="UTF-8"?> <svg xmlns="http://www.w3.org/2000/svg" width="165" height="19" viewBox="0 0 165 19" fill="none"><path d="M164.215 18.0751H161.315L159.165 13.725H148.315L146.165 18.0751H143.34L152.49 0.425049H155.165L164.215 18.0751ZM158.09 11.7L153.765 2.95005L149.365 11.7H158.09Z" fill="white"></path><path d="M142.877 18.0751H128.652V0.425049H131.152V15.925H142.877V18.0751Z" fill="white"></path><path d="M126.152 18.0751H109.227V0.425049H125.502V2.60005H111.727V7.85005H125.152V9.95005H111.727V15.9001H126.152V18.0751Z" fill="white"></path><path d="M105.277 18.0751H102.827L89.0023 3.47505L89.0523 18.0751H86.6523V0.425049H89.2273L102.952 15L102.877 0.425049H105.277V18.0751Z" fill="white"></path><path d="M84.9133 18.0751H81.6383L75.6633 11H67.1383V18.0751H64.6133V0.425049H76.6383C78.1383 0.425049 78.6883 0.500049 79.4383 0.700048C81.8133 1.32505 83.1633 3.17505 83.1633 5.60005C83.1633 6.55005 82.9633 9.02505 80.3133 10.125C79.8633 10.3 79.3883 10.45 78.3883 10.6L84.9133 18.0751ZM80.5633 5.70005C80.5633 5.37505 80.5383 4.70005 80.1133 3.97505C79.3633 2.65005 78.1883 2.52505 76.8133 2.52505H67.1133V8.92505H75.8383C77.2633 8.92505 78.9383 8.87505 79.9133 7.62505C80.1633 7.32505 80.5633 6.72505 80.5633 5.70005Z" fill="white"></path><path d="M60.6781 11.05C60.6781 12.225 60.6531 13.225 60.1781 14.35C58.8031 17.7 54.8781 18.5 51.6781 18.5C50.8281 18.5 47.6031 18.5251 45.1031 16.7751C44.0531 16.0501 43.5781 15.275 43.3281 14.825C42.6281 13.525 42.5781 12.225 42.5781 10.8V0.425049H45.1031V10.9C45.1031 11.1 45.0781 11.85 45.2031 12.55C45.4531 14.175 46.2781 14.7501 46.9031 15.1501C47.7781 15.7001 49.2281 16.325 51.7031 16.325C52.0281 16.325 55.0031 16.325 56.7031 15.075C57.3031 14.625 57.6531 14.025 57.7531 13.8C58.1531 12.975 58.1531 12.15 58.1531 11.225V0.425049H60.6781V11.05Z" fill="white"></path><path d="M39.5516 9.5C39.5516 10.525 39.4016 13.275 37.2516 15.5C36.0266 16.775 33.3266 18.55 28.9016 18.55C28.4516 18.55 27.4266 18.525 26.2016 18.325C25.0016 18.15 21.4266 17.5 19.3766 14.2C18.1766 12.25 18.1016 10.25 18.1016 9.45C18.1016 7.425 18.6266 5.4 19.8766 3.825C20.1266 3.5 20.4516 3.125 21.1516 2.55C22.3516 1.55 24.7766 0 28.7516 0C29.5516 0 31.9516 0.0750005 34.2266 1.125C35.6766 1.8 37.0766 2.9 38.0016 4.225C39.4516 6.325 39.5516 8.65 39.5516 9.5ZM37.0266 9.25C37.0266 7.75 36.6266 6.7 36.3766 6.175C34.4766 2.1 29.4516 2.125 28.4516 2.15C27.7016 2.175 24.5266 2.35 22.4766 4.4C22.1266 4.75 21.4266 5.525 21.0016 6.775C20.7266 7.575 20.6016 8.5 20.6016 9.35C20.6016 10 20.6766 11.9 21.8766 13.525C22.1266 13.85 22.5016 14.3 23.2766 14.85C24.3016 15.575 26.0266 16.375 28.9516 16.375C29.4266 16.375 30.6016 16.375 31.9266 16.025C34.4016 15.375 36.2016 13.725 36.8016 11.225C36.8766 10.875 37.0266 10.15 37.0266 9.25Z" fill="white"></path><path d="M15.1023 12.075C15.1023 12.425 15.1773 13.825 14.7023 14.975C13.6023 17.55 10.3773 18.5 7.87734 18.5C7.37734 18.5 6.55234 18.4751 5.37734 18.225C1.75234 17.45 0.802344 15.05 0.277344 13.7L2.82734 13.225C3.00234 13.6 3.55234 14.8251 4.62734 15.5251C5.80234 16.2751 7.25234 16.2751 7.65234 16.2751C8.10234 16.2751 9.87734 16.25 11.1273 15.475C11.3023 15.35 11.9023 14.925 12.2523 14.2C12.5023 13.65 12.6023 13.175 12.6023 12V0.425049H15.1023V12.075Z" fill="white"></path></svg> 