<?xml version="1.0" encoding="UTF-8"?> <svg xmlns="http://www.w3.org/2000/svg" width="239" height="119" viewBox="0 0 239 119" fill="none"><rect x="0.1875" width="238.379" height="118.238" fill="#CF0D06"></rect><path d="M202.215 96.7345H199.315L197.165 92.3845H186.315L184.165 96.7345H181.34L190.49 79.0845H193.165L202.215 96.7345ZM196.09 90.3595L191.765 81.6095L187.365 90.3595H196.09Z" fill="white"></path><path d="M180.877 96.7345H166.652V79.0845H169.152V94.5845H180.877V96.7345Z" fill="white"></path><path d="M164.152 96.7345H147.227V79.0845H163.502V81.2595H149.727V86.5095H163.152V88.6095H149.727V94.5595H164.152V96.7345Z" fill="white"></path><path d="M143.277 96.7345H140.827L127.002 82.1345L127.052 96.7345H124.652V79.0845H127.227L140.952 93.6595L140.877 79.0845H143.277V96.7345Z" fill="white"></path><path d="M122.913 96.7345H119.638L113.663 89.6595H105.138V96.7345H102.613V79.0845H114.638C116.138 79.0845 116.688 79.1595 117.438 79.3595C119.813 79.9845 121.163 81.8345 121.163 84.2595C121.163 85.2095 120.963 87.6845 118.313 88.7845C117.863 88.9595 117.388 89.1095 116.388 89.2595L122.913 96.7345ZM118.563 84.3595C118.563 84.0345 118.538 83.3595 118.113 82.6345C117.363 81.3095 116.188 81.1845 114.813 81.1845H105.113V87.5845H113.838C115.263 87.5845 116.938 87.5345 117.913 86.2845C118.163 85.9845 118.563 85.3845 118.563 84.3595Z" fill="white"></path><path d="M98.6781 89.7095C98.6781 90.8845 98.6531 91.8845 98.1781 93.0095C96.8031 96.3595 92.8781 97.1595 89.6781 97.1595C88.8281 97.1595 85.6031 97.1845 83.1031 95.4345C82.0531 94.7095 81.5781 93.9345 81.3281 93.4845C80.6281 92.1845 80.5781 90.8845 80.5781 89.4595V79.0845H83.1031V89.5595C83.1031 89.7595 83.0781 90.5095 83.2031 91.2095C83.4531 92.8345 84.2781 93.4095 84.9031 93.8095C85.7781 94.3595 87.2281 94.9845 89.7031 94.9845C90.0281 94.9845 93.0031 94.9845 94.7031 93.7345C95.3031 93.2845 95.6531 92.6845 95.7531 92.4595C96.1531 91.6345 96.1531 90.8095 96.1531 89.8845V79.0845H98.6781V89.7095Z" fill="white"></path><path d="M77.5516 88.1594C77.5516 89.1844 77.4016 91.9344 75.2516 94.1594C74.0266 95.4344 71.3266 97.2094 66.9016 97.2094C66.4516 97.2094 65.4266 97.1844 64.2016 96.9844C63.0016 96.8094 59.4266 96.1594 57.3766 92.8594C56.1766 90.9094 56.1016 88.9094 56.1016 88.1094C56.1016 86.0844 56.6266 84.0594 57.8766 82.4844C58.1266 82.1594 58.4516 81.7844 59.1516 81.2094C60.3516 80.2094 62.7766 78.6594 66.7516 78.6594C67.5516 78.6594 69.9516 78.7344 72.2266 79.7844C73.6766 80.4594 75.0766 81.5594 76.0016 82.8844C77.4516 84.9844 77.5516 87.3094 77.5516 88.1594ZM75.0266 87.9094C75.0266 86.4094 74.6266 85.3594 74.3766 84.8344C72.4766 80.7594 67.4516 80.7844 66.4516 80.8094C65.7016 80.8344 62.5266 81.0094 60.4766 83.0594C60.1266 83.4094 59.4266 84.1844 59.0016 85.4344C58.7266 86.2344 58.6016 87.1594 58.6016 88.0094C58.6016 88.6594 58.6766 90.5594 59.8766 92.1844C60.1266 92.5094 60.5016 92.9594 61.2766 93.5094C62.3016 94.2344 64.0266 95.0344 66.9516 95.0344C67.4266 95.0344 68.6016 95.0344 69.9266 94.6844C72.4016 94.0344 74.2016 92.3844 74.8016 89.8844C74.8766 89.5344 75.0266 88.8094 75.0266 87.9094Z" fill="white"></path><path d="M53.1023 90.7345C53.1023 91.0845 53.1773 92.4845 52.7023 93.6345C51.6023 96.2095 48.3773 97.1595 45.8773 97.1595C45.3773 97.1595 44.5523 97.1345 43.3773 96.8845C39.7523 96.1095 38.8023 93.7095 38.2773 92.3595L40.8273 91.8845C41.0023 92.2595 41.5523 93.4845 42.6273 94.1845C43.8023 94.9345 45.2523 94.9345 45.6523 94.9345C46.1023 94.9345 47.8773 94.9095 49.1273 94.1345C49.3023 94.0095 49.9023 93.5845 50.2523 92.8595C50.5023 92.3095 50.6023 91.8345 50.6023 90.6595V79.0845H53.1023V90.7345Z" fill="white"></path></svg> 