<?xml version="1.0" encoding="UTF-8"?> <svg xmlns="http://www.w3.org/2000/svg" width="1290" height="135" viewBox="0 0 1290 135" fill="none"><path d="M6.77686 118.438L11.7232 106.169H39.5706L44.478 118.438H51.2938L29.4053 65.5469H21.8495L0 118.438H6.77686ZM13.7484 100.677L25.6274 72.2458L37.5453 100.677H13.7484Z" fill="#202020"></path><path d="M60.9076 118.438V97.6785C60.9076 89.3048 65.776 86.0332 70.7613 86.0332C73.176 86.0332 74.6171 86.5785 75.6687 86.968L76.2918 81.2427C75.5908 80.9311 73.6434 80.269 70.995 80.269C66.7107 80.269 63.0107 82.2553 60.9076 86.5785V81.048H54.676V118.438H60.9076Z" fill="#202020"></path><path d="M83.1793 86.3838V107.61C83.1793 115.244 87.9698 119.216 95.1751 119.216C98.213 119.216 101.446 118.438 103.042 117.542L102.225 112.206C100.433 113.102 97.8625 113.647 95.8372 113.647C92.0203 113.647 89.3719 111.505 89.3719 106.597V86.3838H101.679V81.048H89.333V69.0521H83.2182V81.048H76.2856V86.3838H83.1793Z" fill="#202020"></path><path d="M1049.02 23.9345H1060.07V53.2425H1064.08V23.9345H1075.13V20.1859H1049.02V23.9345Z" fill="#202020"></path><path d="M1070.97 41.5583C1070.97 48.4228 1076.15 53.7293 1083.19 53.7293C1087.57 53.7293 1091.37 51.7333 1093.51 48.4228L1090.56 46.2806C1088.88 48.6662 1086.47 50.1997 1083.19 50.1997C1078.32 50.1997 1075.13 46.7675 1074.89 42.5076H1094.14C1094.24 41.8504 1094.26 41.0714 1094.26 40.3655C1094.26 33.501 1088.84 29.3872 1082.99 29.3872C1076.35 29.3872 1070.97 34.6938 1070.97 41.5583ZM1083.02 32.9168C1086.99 32.9168 1090.13 35.4727 1090.39 39.3188H1075.03C1075.62 35.4727 1078.98 32.9168 1083.02 32.9168Z" fill="#202020"></path><path d="M1108.82 53.7293C1113.37 53.7293 1117.51 51.3438 1119.41 47.6195L1116.31 45.7208C1114.83 48.3741 1112.05 50.1267 1108.82 50.1267C1103.9 50.1267 1100.27 46.3537 1100.27 41.5583C1100.27 36.7629 1104.05 32.9898 1108.79 32.9898C1112.13 32.9898 1114.78 34.6938 1116.41 37.5175L1119.5 35.6188C1117.46 31.6997 1113.49 29.3872 1108.79 29.3872C1101.85 29.3872 1096.4 34.6938 1096.4 41.5583C1096.4 48.3741 1101.71 53.7293 1108.82 53.7293Z" fill="#202020"></path><path d="M1126.73 53.2425V40.0491C1126.73 35.7892 1129.97 33.0385 1133.96 33.0385C1138.14 33.0385 1140.53 35.424 1140.53 39.976V53.2425H1144.38V39.0267C1144.38 33.0142 1140.68 29.3872 1134.57 29.3872C1130.84 29.3872 1128.07 31.2129 1126.75 33.3793V18.9688H1122.86V53.2425H1126.73Z" fill="#202020"></path><path d="M1153.5 53.2425V40.0491C1153.5 35.7892 1156.74 33.0385 1160.73 33.0385C1164.97 33.0385 1167.33 35.424 1167.33 39.976V53.2425H1171.2V39.0267C1171.2 33.0142 1167.5 29.3872 1161.34 29.3872C1157.61 29.3872 1154.84 31.2129 1153.53 33.3793V29.874H1149.63V53.2425H1153.5Z" fill="#202020"></path><path d="M1187.14 53.7293C1194.25 53.7293 1199.55 48.3984 1199.55 41.5583C1199.55 34.7181 1194.25 29.3872 1187.14 29.3872C1180.03 29.3872 1174.72 34.7181 1174.72 41.5583C1174.72 48.3984 1180.03 53.7293 1187.14 53.7293ZM1178.59 41.5583C1178.59 36.7385 1182.22 32.9898 1187.14 32.9898C1192.05 32.9898 1195.68 36.7385 1195.68 41.5583C1195.68 46.378 1192.05 50.1267 1187.14 50.1267C1182.22 50.1267 1178.59 46.378 1178.59 41.5583Z" fill="#202020"></path><path d="M1203.37 53.2425H1207.24V18.9688H1203.37V53.2425Z" fill="#202020"></path><path d="M1223.5 53.7293C1230.61 53.7293 1235.91 48.3984 1235.91 41.5583C1235.91 34.7181 1230.61 29.3872 1223.5 29.3872C1216.39 29.3872 1211.08 34.7181 1211.08 41.5583C1211.08 48.3984 1216.39 53.7293 1223.5 53.7293ZM1214.95 41.5583C1214.95 36.7385 1218.58 32.9898 1223.5 32.9898C1228.41 32.9898 1232.04 36.7385 1232.04 41.5583C1232.04 46.378 1228.41 50.1267 1223.5 50.1267C1218.58 50.1267 1214.95 46.378 1214.95 41.5583Z" fill="#202020"></path><path d="M1249.93 53.7293C1254.12 53.7293 1257.23 51.855 1258.94 49.3964V52.1228C1258.94 56.8938 1255.48 59.9366 1250.05 59.9366C1246.79 59.9366 1243.94 58.6465 1241.8 56.334L1239.24 58.8655C1241.77 61.8109 1245.69 63.4662 1250.05 63.4662C1257.84 63.4662 1262.81 58.8169 1262.81 51.5629V29.874H1258.94V33.6958C1257.18 31.1885 1254.12 29.3872 1249.93 29.3872C1243.23 29.3872 1238.15 34.4747 1238.15 41.4852C1238.15 48.5201 1243.23 53.7293 1249.93 53.7293ZM1250.32 32.8925C1255.31 32.8925 1258.98 36.6655 1258.98 41.4852C1258.98 46.3293 1255.31 50.2241 1250.32 50.2241C1245.45 50.2241 1241.99 46.3293 1241.99 41.4852C1241.99 36.6655 1245.45 32.8925 1250.32 32.8925Z" fill="#202020"></path><path d="M1275.24 53.8997L1274.83 54.9951C1273.56 58.3544 1271.88 60.0096 1269.23 60.0096C1268.01 60.0096 1266.72 59.7419 1265.92 59.3767L1265.46 62.6629C1266.11 63.0037 1267.57 63.4662 1269.45 63.4662C1274.17 63.4662 1276.41 60.8859 1278.36 56.2122L1289.38 29.874H1285.12L1277.31 49.4451L1269.35 29.874H1265.14L1275.24 53.8997Z" fill="#202020"></path><path d="M280.578 107.799C283.538 114.07 290.782 119.211 300.909 119.211C311.814 119.211 319.798 113.291 319.798 104.995C319.798 95.4138 311.853 91.8696 301.921 88.4812C293.898 85.7548 289.263 83.9243 289.263 78.7833C289.263 73.3696 294.327 70.6432 299.857 70.6432C307.179 70.6432 311.347 75.3559 313.333 78.5106L318.357 74.8496C315.787 70.4874 310.061 64.7622 299.857 64.7622C291.522 64.7622 282.564 69.4359 282.564 78.8611C282.564 87.8191 290.081 91.3633 299.896 94.6738C308.698 97.6338 313.099 99.8538 313.099 105.073C313.099 109.98 308.036 113.369 300.909 113.369C293.119 113.369 288.134 109.24 285.408 104.333L280.578 107.799Z" fill="#202020"></path><path d="M328.244 86.378V107.604C328.244 115.238 333.034 119.211 340.239 119.211C343.277 119.211 346.51 118.432 348.107 117.536L347.289 112.2C345.497 113.096 342.927 113.641 340.901 113.641C337.085 113.641 334.436 111.499 334.436 106.592V86.378H346.744V81.0422H334.397V69.0464H328.283V81.0422H321.35V86.378H328.244Z" fill="#202020"></path><path d="M368.626 119.211C379.998 119.211 388.489 110.681 388.489 99.737C388.489 88.7927 379.998 80.2633 368.626 80.2633C357.253 80.2633 348.763 88.7927 348.763 99.737C348.763 110.681 357.253 119.211 368.626 119.211ZM354.955 99.737C354.955 92.0254 360.758 86.0275 368.626 86.0275C376.493 86.0275 382.296 92.0254 382.296 99.737C382.296 107.449 376.493 113.446 368.626 113.446C360.758 113.446 354.955 107.449 354.955 99.737Z" fill="#202020"></path><path d="M400.829 118.432V97.6728C400.829 89.2991 405.698 86.0275 410.683 86.0275C413.098 86.0275 414.539 86.5727 415.59 86.9622L416.213 81.2369C415.512 80.9254 413.565 80.2633 410.917 80.2633C406.632 80.2633 402.932 82.2496 400.829 86.5727V81.0422H394.598V118.432H400.829Z" fill="#202020"></path><path d="M431.786 119.483L431.124 121.236C429.099 126.611 426.411 129.259 422.166 129.259C420.219 129.259 418.155 128.831 416.869 128.247L416.129 133.504C417.181 134.05 419.518 134.79 422.517 134.79C430.072 134.79 433.656 130.661 436.771 123.183L454.415 81.0422H447.599L435.097 112.356L422.361 81.0422H415.623L431.786 119.483Z" fill="#202020"></path><path d="M463.672 71.539H481.354V118.432H487.78V71.539H505.462V65.5411H463.672V71.539Z" fill="#202020"></path><path d="M498.796 99.737C498.796 110.72 507.092 119.211 518.348 119.211C525.358 119.211 531.434 116.017 534.861 110.72L530.149 107.293C527.461 111.11 523.606 113.563 518.348 113.563C510.558 113.563 505.456 108.072 505.067 101.256H535.874C536.03 100.204 536.069 98.958 536.069 97.8286C536.069 86.8454 527.383 80.2633 518.036 80.2633C507.403 80.2633 498.796 88.7538 498.796 99.737ZM518.075 85.9106C524.423 85.9106 529.448 90.0001 529.876 96.1538H505.3C506.235 90.0001 511.61 85.9106 518.075 85.9106Z" fill="#202020"></path><path d="M542.255 118.432H548.448V63.5938H542.255V118.432Z" fill="#202020"></path><path d="M557.361 118.432H563.553V63.5938H557.361V118.432Z" fill="#202020"></path><path d="M571.726 68.5011C571.726 70.7601 573.284 72.3569 575.543 72.3569C577.802 72.3569 579.437 70.7601 579.437 68.5011C579.437 66.2422 577.802 64.6843 575.543 64.6843C573.284 64.6843 571.726 66.2422 571.726 68.5011ZM572.466 81.0422V118.432H578.659V81.0422H572.466Z" fill="#202020"></path><path d="M593.764 118.432V97.3222C593.764 90.5064 598.944 86.1054 605.331 86.1054C612.108 86.1054 615.886 89.9222 615.886 97.2054V118.432H622.079V95.6864C622.079 86.0664 616.159 80.2633 606.305 80.2633C600.346 80.2633 595.906 83.1843 593.803 86.6506V81.0422H587.571V118.432H593.764Z" fill="#202020"></path><path d="M646.804 119.211C653.503 119.211 658.488 116.212 661.215 112.278V116.64C661.215 124.274 655.684 129.142 646.999 129.142C641.78 129.142 637.223 127.078 633.796 123.378L629.706 127.429C633.757 132.141 640.027 134.79 646.999 134.79C659.462 134.79 667.407 127.351 667.407 115.744V81.0422H661.215V87.157C658.41 83.1454 653.503 80.2633 646.804 80.2633C636.094 80.2633 627.954 88.4033 627.954 99.6201C627.954 110.876 636.094 119.211 646.804 119.211ZM647.427 85.8717C655.411 85.8717 661.293 91.9085 661.293 99.6201C661.293 107.371 655.411 113.602 647.427 113.602C639.638 113.602 634.107 107.371 634.107 99.6201C634.107 91.9085 639.638 85.8717 647.427 85.8717Z" fill="#202020"></path><path d="M807.044 119.216C820.52 119.216 829.166 111.544 829.166 99.548V65.5469H822.74V99.1975C822.74 107.727 816.625 113.18 807.044 113.18C797.463 113.18 791.348 107.727 791.348 99.1975V65.5469H784.922V99.548C784.922 111.544 793.568 119.216 807.044 119.216Z" fill="#202020"></path><path d="M840.572 118.476L856.774 96.3543L872.937 118.476H880.96L861.058 91.3301L879.908 65.5469H872.002L856.813 86.3838L841.662 65.5469H833.717L852.567 91.369L832.665 118.476H840.572Z" fill="#202020"></path><path d="M920.646 54.1132H935.282L923.979 118.375H909.343L907.227 130.219H938.299L953.836 42.2695H922.763L920.646 54.1132Z" fill="#170F11"></path><path fill-rule="evenodd" clip-rule="evenodd" d="M919.162 55.3558L921.724 41.0195H955.326L939.349 131.462H905.742L908.304 117.125H922.937L933.802 55.3558H919.162ZM935.287 54.1095L923.983 118.372H909.348L907.231 130.215H938.304L953.84 42.2658H922.767L920.651 54.1095H935.287Z" fill="#202020"></path><path d="M241.346 118.375H226.71L238.013 54.1132H252.649L254.765 42.2695H223.693L208.156 130.219H239.229L241.346 118.375Z" fill="#170F11"></path><path fill-rule="evenodd" clip-rule="evenodd" d="M242.828 117.125L240.266 131.462H206.664L222.641 41.0195H256.248L253.686 55.3558H239.053L228.188 117.125H242.828ZM226.703 118.372H241.339L239.223 130.215H208.15L223.686 42.2658H254.759L252.642 54.1095H238.007L226.703 118.372Z" fill="#202020"></path><path d="M146.428 64.1108L138.579 71.9597L152.053 85.4336L138.612 98.8748L147.377 107.639L160.818 94.1982L174.39 107.77L182.239 99.9214L168.667 86.3493L181.879 73.137L173.115 64.3724L159.902 77.5847L146.428 64.1108Z" fill="#CF0D06"></path><path d="M700.508 83.4546V94.5546H719.563V113.563H731.958V94.5546H751.152V83.4546H731.958V64.7695H719.563V83.4546H700.508Z" fill="#CF0D06"></path><path d="M989.342 13.8725L981.493 21.7214L994.967 35.1953L981.526 48.6366L990.291 57.4012L1003.73 43.9599L1017.3 57.532L1025.15 49.6831L1011.58 36.111L1024.79 22.8987L1016.03 14.1341L1002.82 27.3464L989.342 13.8725Z" fill="#CF0D06"></path></svg> 