<svg width="12" height="11" viewBox="0 0 12 11" fill="none" xmlns="http://www.w3.org/2000/svg">
<path d="M8.88746 2.15322C8.76122 2.15322 8.63779 2.19068 8.53278 2.2608C8.42781 2.33097 8.34599 2.43066 8.29763 2.54733C8.24933 2.664 8.23672 2.79232 8.26135 2.91617C8.28598 3.04002 8.34674 3.15376 8.43606 3.24303C8.52533 3.33235 8.63907 3.39311 8.76292 3.41774C8.88677 3.44237 9.01509 3.42976 9.13175 3.38146C9.24842 3.3331 9.34812 3.25127 9.41829 3.14631C9.48841 3.04129 9.52586 2.91787 9.52586 2.79163C9.52586 2.62229 9.45862 2.45992 9.33886 2.34022C9.21916 2.22047 9.0568 2.15322 8.88746 2.15322ZM11.3347 3.44067C11.3243 2.99927 11.2417 2.56255 11.0899 2.1479C10.9547 1.79311 10.7441 1.47189 10.4728 1.20626C10.2094 0.933558 9.88741 0.724376 9.53118 0.594461C9.11766 0.438159 8.68041 0.35357 8.23842 0.34442C7.6745 0.3125 7.49362 0.3125 6.04657 0.3125C4.59953 0.3125 4.41865 0.3125 3.85473 0.34442C3.41274 0.35357 2.97549 0.438159 2.56197 0.594461C2.20643 0.725652 1.88468 0.934729 1.62032 1.20626C1.34762 1.46971 1.13844 1.79168 1.00852 2.1479C0.852222 2.56143 0.767633 2.99868 0.758482 3.44067C0.726562 4.00459 0.726563 4.18547 0.726563 5.63251C0.726563 7.07956 0.726562 7.26044 0.758482 7.82436C0.767633 8.26634 0.852222 8.7036 1.00852 9.11712C1.13844 9.47335 1.34762 9.79531 1.62032 10.0588C1.88468 10.3303 2.20643 10.5394 2.56197 10.6706C2.97549 10.8269 3.41274 10.9115 3.85473 10.9206C4.41865 10.9525 4.59953 10.9525 6.04657 10.9525C7.49362 10.9525 7.6745 10.9525 8.23842 10.9206C8.68041 10.9115 9.11766 10.8269 9.53118 10.6706C9.88741 10.5406 10.2094 10.3315 10.4728 10.0588C10.7453 9.79414 10.956 9.4726 11.0899 9.11712C11.2417 8.70248 11.3243 8.26576 11.3347 7.82436C11.3347 7.26044 11.3666 7.07956 11.3666 5.63251C11.3666 4.18547 11.3666 4.00459 11.3347 3.44067ZM10.3771 7.76052C10.3732 8.09823 10.3121 8.43281 10.1962 8.75004C10.1112 8.98157 9.97482 9.19075 9.79718 9.36184C9.6246 9.53767 9.41584 9.67381 9.18538 9.76084C8.86815 9.87671 8.53357 9.93784 8.19586 9.94172C7.66386 9.96832 7.46702 9.97364 6.06785 9.97364C4.66869 9.97364 4.47185 9.97364 3.93985 9.94172C3.58921 9.94826 3.24006 9.89432 2.90777 9.78212C2.68741 9.69067 2.48823 9.55485 2.32257 9.38312C2.14599 9.21219 2.01124 9.00285 1.92889 8.77132C1.79902 8.44957 1.72694 8.10733 1.71609 7.76052C1.71609 7.22852 1.68416 7.03168 1.68416 5.63251C1.68416 4.23335 1.68417 4.03651 1.71609 3.50451C1.71848 3.15929 1.78152 2.81711 1.90228 2.49371C1.99592 2.26915 2.13972 2.06901 2.32257 1.9085C2.48419 1.7256 2.68395 1.58031 2.90777 1.4829C3.23208 1.36586 3.57383 1.30474 3.91857 1.30202C4.45057 1.30202 4.64741 1.2701 6.04657 1.2701C7.44574 1.2701 7.64258 1.2701 8.17458 1.30202C8.51229 1.30591 8.84687 1.36703 9.1641 1.4829C9.40584 1.57265 9.62285 1.71847 9.79718 1.9085C9.97152 2.07193 10.1078 2.2717 10.1962 2.49371C10.3144 2.81764 10.3756 3.15966 10.3771 3.50451C10.4037 4.03651 10.409 4.23335 10.409 5.63251C10.409 7.03168 10.4037 7.22852 10.3771 7.76052ZM6.04657 2.90335C5.50702 2.90441 4.97991 3.06534 4.53181 3.36587C4.08365 3.6664 3.73471 4.09301 3.52893 4.59181C3.32321 5.09056 3.2699 5.63916 3.37582 6.16818C3.48174 6.69726 3.74205 7.18303 4.12398 7.56421C4.50585 7.94533 4.99215 8.20474 5.52144 8.3096C6.05067 8.41451 6.59916 8.36014 7.09754 8.1534C7.59592 7.94672 8.02184 7.59687 8.32147 7.14818C8.62114 6.69949 8.78106 6.17207 8.78106 5.63251C8.78175 5.27346 8.71148 4.91782 8.57422 4.58607C8.43702 4.25426 8.23555 3.95288 7.98141 3.69927C7.72727 3.44561 7.42547 3.24473 7.09345 3.10811C6.76137 2.97155 6.40562 2.90196 6.04657 2.90335ZM6.04657 7.40408C5.6962 7.40408 5.3537 7.30018 5.06237 7.10552C4.771 6.91086 4.54394 6.63416 4.40987 6.31044C4.27576 5.98677 4.2407 5.63054 4.30906 5.28687C4.37742 4.94325 4.54612 4.62756 4.79387 4.37981C5.04162 4.13206 5.35731 3.96336 5.70093 3.895C6.04461 3.82663 6.40083 3.86169 6.7245 3.99581C7.04823 4.12987 7.32492 4.35693 7.51958 4.64831C7.71424 4.93963 7.81814 5.28214 7.81814 5.63251C7.81814 5.86516 7.77233 6.09551 7.68328 6.31044C7.59427 6.52542 7.46377 6.72067 7.29928 6.88521C7.13473 7.04971 6.93949 7.18021 6.7245 7.26921C6.50957 7.35827 6.27922 7.40408 6.04657 7.40408Z" fill="white"/>
</svg>
